<svg width="30" height="30" viewBox="0 0 30 30" fill="none" xmlns="http://www.w3.org/2000/svg">
<path d="M19.38 4.2705C20.2202 3.44971 21.35 2.99324 22.5245 3.00008C23.699 3.00692 24.8235 3.47652 25.654 4.30704C26.4845 5.13755 26.9541 6.26201 26.961 7.43651C26.9678 8.61102 26.5113 9.74087 25.6905 10.581L24.6855 11.586L25.1895 12.09C25.752 12.6526 26.0679 13.4155 26.0679 14.211C26.0679 15.0065 25.752 15.7694 25.1895 16.332L23.7795 17.742C23.6387 17.8826 23.4478 17.9616 23.2488 17.9614C23.0497 17.9613 22.8589 17.8821 22.7183 17.7413C22.5777 17.6004 22.4987 17.4095 22.4989 17.2105C22.499 17.0114 22.5782 16.8206 22.719 16.68L24.129 15.2715C24.4103 14.9902 24.5682 14.6087 24.5682 14.211C24.5682 13.8133 24.4103 13.4318 24.129 13.1505L23.625 12.6465L11.655 24.618C11.1469 25.1264 10.5042 25.4792 9.80255 25.635L3.91355 26.9445C3.79027 26.972 3.66203 26.968 3.54073 26.9328C3.41943 26.8975 3.30899 26.8322 3.21967 26.7429C3.13035 26.6536 3.06503 26.5431 3.02979 26.4218C2.99454 26.3005 2.9905 26.1723 3.01805 26.049L4.33505 20.124C4.48505 19.446 4.82705 18.8235 5.31755 18.333L19.38 4.2705Z" fill="#111111"/>
</svg>
