<svg width="30" height="30" viewBox="0 0 30 30" fill="none" xmlns="http://www.w3.org/2000/svg">
<path d="M23.4083 8.11668C23.0801 8.12157 22.7543 8.17492 22.4417 8.27501C22.2833 7.24168 21.15 6.45835 19.7167 6.45835C19.2822 6.44398 18.849 6.51475 18.4417 6.66668C18.1826 6.21049 17.801 5.83598 17.34 5.58559C16.879 5.3352 16.357 5.21895 15.8333 5.25001C15.3759 5.22966 14.9202 5.31886 14.5042 5.51019C14.0882 5.70152 13.7239 5.98945 13.4417 6.35001C12.9652 6.06758 12.4206 5.92063 11.8667 5.92501C11.203 5.8811 10.5486 6.09908 10.0438 6.5322C9.539 6.96531 9.22411 7.57904 9.16668 8.24168V9.00001C8.28335 9.33335 5.74168 10.5 5.07501 13.0333C4.40835 15.5667 5.35835 19.7 7.31668 22.85C8.63316 24.9024 10.2969 26.7099 12.2333 28.1917C12.3619 28.2844 12.5165 28.334 12.675 28.3333H21.2917C21.4576 28.3315 21.6184 28.276 21.75 28.175C23.2464 26.796 24.3286 25.0269 24.875 23.0667C25.82 20.4856 26.2613 17.7473 26.175 15V10.4167C26.1074 9.74716 25.7796 9.13096 25.2621 8.70078C24.7447 8.2706 24.079 8.06084 23.4083 8.11668V8.11668ZM24.675 15C24.7659 17.5971 24.3498 20.1871 23.45 22.625C22.9785 24.2022 22.1387 25.6446 21 26.8333H12.8917C11.1966 25.4918 9.73278 23.8816 8.55835 22.0667C6.58335 18.85 6.05835 15.2083 6.49168 13.4083C6.71888 12.7845 7.07431 12.2153 7.53506 11.7373C7.99581 11.2594 8.55163 10.8833 9.16668 10.6333V17.0083C9.16668 17.2073 9.2457 17.398 9.38635 17.5387C9.527 17.6793 9.71777 17.7583 9.91668 17.7583C10.1156 17.7583 10.3064 17.6793 10.447 17.5387C10.5877 17.398 10.6667 17.2073 10.6667 17.0083V8.24168C10.6667 7.85001 11.1583 7.40835 11.8833 7.40835C12.6083 7.40835 13.125 7.84168 13.125 8.24168V13.0083H14.625V7.34168C14.625 7.10835 15.1083 6.75001 15.8417 6.75001C16.575 6.75001 17.1167 7.15001 17.1167 7.37501V13.1167H18.6167V8.33335L18.7583 8.23335C19.0524 8.0489 19.3947 7.95607 19.7417 7.96668C20.5167 7.96668 20.9917 8.33335 20.9917 8.53335V13.95H22.5V9.89168C22.7748 9.70484 23.1012 9.60868 23.4333 9.61668C24.15 9.61668 24.7 10.0417 24.7 10.4L24.675 15Z" fill="#111111"/>
</svg>
