<svg width="30" height="30" viewBox="0 0 30 30" fill="none" xmlns="http://www.w3.org/2000/svg">
<path d="M9.9486 5.83891C9.75336 5.84108 9.56259 5.89765 9.39772 6.00226C9.23285 6.10687 9.10042 6.25538 9.0153 6.43111L2.802 19.2717C2.73035 19.4199 2.69453 19.5828 2.69745 19.7474C2.70036 19.9119 2.74191 20.0735 2.81876 20.2191C2.8956 20.3646 3.00559 20.49 3.13983 20.5853C3.27408 20.6805 3.42883 20.7428 3.5916 20.7672L26.0961 24.1497C26.2732 24.1763 26.4543 24.1571 26.6219 24.094C26.7895 24.0309 26.9383 23.926 27.0539 23.7892C27.1695 23.6524 27.2483 23.4883 27.2826 23.3124C27.3169 23.1366 27.3056 22.955 27.2499 22.7847L22.9698 9.73681C22.9152 9.57043 22.8199 9.42034 22.6926 9.3002C22.5652 9.18005 22.4098 9.09367 22.2405 9.04891L10.2285 5.87311C10.1372 5.84907 10.043 5.83747 9.9486 5.83861V5.83891ZM10.5288 8.12521L21.1524 10.9335L24.7236 21.8196L5.3136 18.9024L10.5288 8.12521V8.12521Z" fill="#111111"/>
</svg>
