<svg width="42" height="42" viewBox="0 0 42 42" fill="none" xmlns="http://www.w3.org/2000/svg">
<circle cx="21" cy="21" r="21" fill="white"/>
<path d="M23.4419 32.2326H11.7209C11.203 32.232 10.7064 32.0261 10.3402 31.6598C9.97394 31.2936 9.76796 30.797 9.76744 30.2791V18.5581C9.76796 18.0402 9.97394 17.5436 10.3402 17.1774C10.7064 16.8112 11.203 16.6052 11.7209 16.6047H23.4419C23.9598 16.6052 24.4564 16.8112 24.8226 17.1774C25.1889 17.5436 25.3948 18.0402 25.3953 18.5581V30.2791C25.3948 30.797 25.1889 31.2936 24.8226 31.6598C24.4564 32.0261 23.9598 32.232 23.4419 32.2326V32.2326ZM11.7209 18.5581V30.2791H23.4428L23.4419 18.5581H11.7209ZM37.1163 17.5814L35.7391 16.2042L33.2093 18.7242V13.6744C33.2072 11.8617 32.4862 10.1239 31.2044 8.84208C29.9227 7.5603 28.1848 6.83929 26.3721 6.83722H21.4884V8.79071H26.3721C27.6669 8.79226 28.9082 9.30729 29.8237 10.2228C30.7392 11.1384 31.2543 12.3797 31.2558 13.6744V18.7242L28.726 16.2042L27.3488 17.5814L32.2326 22.4651L37.1163 17.5814Z" fill="#414141"/>
</svg>
