<svg width="23" height="16" viewBox="0 0 23 16" fill="none" xmlns="http://www.w3.org/2000/svg">
<path d="M19.6875 4.6875H15V6.5625H19.6875C19.9361 6.5625 20.1746 6.66127 20.3504 6.83709C20.5262 7.0129 20.625 7.25136 20.625 7.5V9.375H16.875C16.1293 9.37574 15.4144 9.6723 14.8871 10.1996C14.3598 10.7269 14.0632 11.4418 14.0625 12.1875V13.125C14.0632 13.8707 14.3598 14.5856 14.8871 15.1129C15.4144 15.6402 16.1293 15.9368 16.875 15.9375H22.5V7.5C22.4993 6.75431 22.2027 6.03937 21.6754 5.51208C21.1481 4.9848 20.4332 4.68824 19.6875 4.6875ZM16.875 14.0625C16.6264 14.0625 16.3879 13.9637 16.2121 13.7879C16.0363 13.6121 15.9375 13.3736 15.9375 13.125V12.1875C15.9375 11.9389 16.0363 11.7004 16.2121 11.5246C16.3879 11.3488 16.6264 11.25 16.875 11.25H20.625V14.0625H16.875ZM11.25 15.9375H13.125L7.5 0H5.625L0 15.9375H1.875L3.46312 11.25H9.66281L11.25 15.9375ZM4.09781 9.375L6.43875 2.46469H6.68812L9.02812 9.375H4.09781Z" fill="#111111"/>
</svg>
