<svg width="27" height="27" viewBox="0 0 27 27" fill="none" xmlns="http://www.w3.org/2000/svg">
<path d="M20.8489 20.1765L19.8604 21.1313C19.7604 21.2221 19.6797 21.3321 19.6231 21.4547C19.5664 21.5773 19.5349 21.7101 19.5306 21.8451C19.5262 21.9801 19.549 22.1146 19.5975 22.2407C19.6461 22.3667 19.7196 22.4817 19.8134 22.5788C19.9073 22.6759 20.0197 22.7532 20.1441 22.8061C20.2684 22.8589 20.402 22.8862 20.5371 22.8864C20.6722 22.8866 20.8059 22.8597 20.9304 22.8072C21.0549 22.7548 21.1676 22.6778 21.2617 22.581L23.7981 20.1334C23.9282 20.008 24.0317 19.8576 24.1025 19.6912C24.1732 19.5248 24.2096 19.3459 24.2096 19.1651C24.2096 18.9844 24.1732 18.8055 24.1025 18.6391C24.0317 18.4727 23.9282 18.3223 23.7981 18.1969L21.2617 15.7493C21.0693 15.5635 20.8109 15.4617 20.5435 15.4663C20.276 15.471 20.0214 15.5817 19.8355 15.7742C19.6497 15.9666 19.5479 16.2249 19.5526 16.4924C19.5573 16.7599 19.668 17.0145 19.8604 17.2003L20.8542 18.1592H17.1466C16.879 18.1592 16.6225 18.2655 16.4333 18.4546C16.2442 18.6438 16.1379 18.9003 16.1379 19.1678C16.1379 19.4353 16.2442 19.6919 16.4333 19.881C16.6225 20.0702 16.879 20.1765 17.1466 20.1765H20.8475H20.8489ZM20.1724 4.03448C20.8858 4.03448 21.5699 4.31786 22.0743 4.82227C22.5787 5.32667 22.8621 6.0108 22.8621 6.72414V12.4397C22.8621 12.7072 22.7558 12.9637 22.5667 13.1529C22.3775 13.342 22.121 13.4483 21.8534 13.4483C21.5859 13.4483 21.3294 13.342 21.1402 13.1529C20.9511 12.9637 20.8448 12.7072 20.8448 12.4397V6.72414C20.8448 6.5458 20.774 6.37477 20.6479 6.24867C20.5218 6.12257 20.3507 6.05173 20.1724 6.05173H6.72414C6.5458 6.05173 6.37477 6.12257 6.24867 6.24867C6.12257 6.37477 6.05172 6.5458 6.05172 6.72414V12.4397C6.05172 12.7072 5.94546 12.9637 5.75631 13.1529C5.56715 13.342 5.31061 13.4483 5.0431 13.4483C4.7756 13.4483 4.51905 13.342 4.3299 13.1529C4.14075 12.9637 4.03448 12.7072 4.03448 12.4397V6.72414C4.03448 6.0108 4.31786 5.32667 4.82227 4.82227C5.32667 4.31786 6.0108 4.03448 6.72414 4.03448H20.1724ZM7.03883 21.1299L6.05038 20.1751H9.75135C10.0188 20.1751 10.2754 20.0688 10.4645 19.8797C10.6537 19.6905 10.76 19.434 10.76 19.1665C10.76 18.899 10.6537 18.6424 10.4645 18.4533C10.2754 18.2641 10.0188 18.1579 9.75135 18.1579H6.045L7.03883 17.199C7.13411 17.107 7.21033 16.9971 7.26314 16.8756C7.31596 16.7542 7.34433 16.6235 7.34664 16.4911C7.34895 16.3586 7.32515 16.227 7.27661 16.1038C7.22806 15.9806 7.15572 15.8681 7.06371 15.7728C6.9717 15.6775 6.86182 15.6013 6.74035 15.5485C6.61888 15.4957 6.4882 15.4673 6.35577 15.465C6.22333 15.4627 6.09174 15.4865 5.9685 15.535C5.84527 15.5836 5.7328 15.6559 5.63752 15.7479L3.10117 18.1969C2.97102 18.3223 2.86749 18.4727 2.79678 18.6391C2.72607 18.8055 2.68962 18.9844 2.68962 19.1651C2.68962 19.3459 2.72607 19.5248 2.79678 19.6912C2.86749 19.8576 2.97102 20.008 3.10117 20.1334L5.63752 22.581C5.82994 22.7668 6.0883 22.8686 6.35577 22.8639C6.62323 22.8593 6.87788 22.7485 7.06371 22.5561C7.24953 22.3637 7.35131 22.1053 7.34664 21.8379C7.34198 21.5704 7.23125 21.3158 7.03883 21.1299Z" fill="#111111"/>
</svg>
